<svg xmlns="http://www.w3.org/2000/svg" width="240" height="20" viewBox="0 0 240 20">
    <path fill="#ffffff" d="M0 19.78V.17h4.52v15.64H14v3.98H0Zm23.44.17c-1.45 0-2.77-.29-3.97-.86-1.19-.57-2.21-1.32-3.06-2.24-.84-.94-1.51-2.01-1.98-3.2-.46-1.2-.69-2.43-.69-3.7s.24-2.53.72-3.73c.5-1.2 1.18-2.25 2.04-3.15.88-.92 1.92-1.65 3.11-2.18 1.19-.55 2.5-.83 3.91-.83s2.77.29 3.97.86c1.19.57 2.21 1.33 3.06 2.27.84.94 1.5 2.01 1.96 3.2.46 1.2.69 2.41.69 3.65s-.25 2.53-.74 3.73c-.48 1.2-1.15 2.26-2.01 3.18-.86.9-1.89 1.63-3.09 2.18-1.19.55-2.5.83-3.91.83Zm-5.1-9.94c0 .76.11 1.49.33 2.21.22.7.54 1.33.96 1.88.44.55.98.99 1.63 1.33.64.33 1.38.5 2.2.5s1.62-.17 2.26-.52 1.18-.8 1.6-1.35c.42-.57.73-1.21.94-1.91a7.34 7.34 0 0 0 0-4.36c-.22-.72-.55-1.34-.99-1.88-.44-.55-.98-.99-1.63-1.3-.62-.33-1.35-.5-2.18-.5s-1.62.17-2.26.52c-.62.33-1.16.77-1.6 1.33-.42.55-.74 1.19-.96 1.91-.2.7-.3 1.42-.3 2.15Zm17.46 9.78V.17h8.82c.92 0 1.76.19 2.53.58.79.39 1.47.89 2.04 1.52.57.63 1.01 1.34 1.32 2.13.33.79.5 1.59.5 2.4 0 .61-.07 1.2-.22 1.77a7.16 7.16 0 0 1-.63 1.57c-.28.5-.62.95-1.02 1.35-.39.39-.83.72-1.32.99l4.3 7.29h-5.1l-3.75-6.33h-2.95v6.33H35.8Zm4.52-10.28h4.13c.53 0 .99-.25 1.38-.75.39-.52.58-1.17.58-1.96s-.22-1.45-.66-1.93c-.44-.48-.92-.72-1.43-.72h-3.99v5.36ZM68 15.81v3.98H54.25V.17h13.5v3.98h-8.98v3.81h7.71v3.67h-7.71v4.17H68Zm18.17 3.98V8.05l-4.24 8.54h-2.42l-4.24-8.54v11.74h-4.52V.17h4.9l5.07 10.25L85.82.17h4.88v19.61h-4.52Zm8.27 0V.17h4.52v19.61h-4.52Zm8.26 0V.17h8.35c.94 0 1.79.19 2.56.58.79.39 1.46.89 2.01 1.52.57.63 1.01 1.34 1.32 2.13.33.79.5 1.59.5 2.4 0 .87-.16 1.69-.47 2.49-.29.79-.72 1.5-1.27 2.13-.53.63-1.18 1.12-1.96 1.49-.77.37-1.63.55-2.56.55h-3.97v6.33h-4.52Zm4.52-10.28h3.69c.53 0 .99-.23 1.38-.69s.58-1.13.58-2.02c0-.46-.06-.86-.19-1.19-.11-.33-.27-.61-.47-.83s-.43-.38-.69-.47c-.26-.11-.51-.17-.77-.17h-3.53V9.5Zm24.38-3.59c-.06-.07-.25-.21-.58-.41-.33-.2-.74-.41-1.24-.64-.5-.22-1.04-.41-1.63-.58a6.29 6.29 0 0 0-1.76-.25c-1.62 0-2.42.54-2.42 1.63 0 .33.08.61.25.83.18.22.44.42.77.61.35.17.78.32 1.29.47.51.15 1.11.31 1.79.5.94.26 1.78.54 2.53.86.75.29 1.39.67 1.9 1.13.53.44.94.99 1.21 1.63.29.64.44 1.42.44 2.32 0 1.1-.21 2.04-.63 2.82-.4.76-.95 1.37-1.63 1.85-.68.46-1.46.8-2.34 1.02-.88.2-1.79.3-2.73.3-.72 0-1.45-.06-2.2-.17-.75-.11-1.49-.27-2.2-.47-.72-.22-1.41-.48-2.09-.77-.66-.29-1.28-.64-1.85-1.02l1.98-3.95c.07.09.31.27.72.52.4.26.9.52 1.49.77.61.26 1.28.49 2.01.69.73.2 1.48.3 2.23.3 1.6 0 2.4-.49 2.4-1.46 0-.37-.12-.67-.36-.91s-.57-.45-.99-.64a9.1 9.1 0 0 0-1.52-.55c-.57-.17-1.19-.35-1.87-.55-.9-.28-1.68-.57-2.34-.88-.66-.33-1.21-.71-1.65-1.13-.42-.42-.74-.91-.96-1.46-.2-.55-.3-1.2-.3-1.93 0-1.03.19-1.94.58-2.73.39-.79.91-1.45 1.57-1.99.66-.55 1.42-.97 2.29-1.24.88-.28 1.81-.41 2.78-.41.68 0 1.35.06 2.01.19.66.13 1.29.29 1.9.5.61.2 1.17.43 1.68.69.53.26 1.02.52 1.46.77l-1.98 3.76Zm13.62 10c.77 0 1.42-.16 1.96-.47.53-.33.96-.76 1.29-1.3s.56-1.14.69-1.82c.15-.7.22-1.41.22-2.13V.17h4.52V10.2c0 1.36-.17 2.63-.52 3.81-.33 1.18-.85 2.21-1.57 3.09-.7.88-1.6 1.58-2.7 2.1-1.08.5-2.38.75-3.88.75s-2.89-.27-3.99-.8-2-1.24-2.7-2.13c-.68-.9-1.18-1.94-1.52-3.12-.31-1.18-.47-2.41-.47-3.7V.17h4.52V10.2c0 .76.07 1.47.22 2.15.15.68.39 1.29.72 1.82s.75.96 1.27 1.27c.53.31 1.18.47 1.96.47Zm27.61 3.87V8.05l-4.24 8.54h-2.42l-4.24-8.54v11.74h-4.52V.17h4.9l5.07 10.25 5.1-10.25h4.88v19.61h-4.52Zm7.89 0v-4.5h3.61v4.5h-3.61Z" />
    <path fill="#42a9ed" d="M192.22 8.56v11.22h-4.52V.17h3.53l9.12 11.52V.17h4.52v19.61h-3.64l-9.01-11.22Zm30.13 7.24v3.98H208.6V.17h13.5v3.98h-8.98v3.81h7.71v3.67h-7.71v4.17h9.23ZM240 4.14h-5.95v15.64h-4.52V4.14h-5.98V.17H240v3.98Z" />
</svg>
